<?xml version="1.0" encoding="UTF-8"?>
<svg id="uuid-a2f3e60b-6999-4881-9906-975168a9d99c" data-name="Calque 1" xmlns="http://www.w3.org/2000/svg" xmlns:xlink="http://www.w3.org/1999/xlink" viewBox="0 0 1061.98 1061.98">
  <defs>
    <style>
      .uuid-0b13d9be-9d5c-43cd-87bc-c2d312da1673 {
        fill: #ee4e24;
      }

      .uuid-0a9a493e-9bd2-44c8-a074-84a146b4220c {
        fill: url(#uuid-f1eac4a7-2843-47dc-ade8-4dac9536f8ac);
      }

      .uuid-fbeb8c37-0df3-4d41-8491-a4d79a907097 {
        fill: #8b6aaa;
      }

      .uuid-fd12087c-dd3a-4c6f-bc43-2eee7ed823ab {
        fill: url(#uuid-f8943f61-0a2c-42e1-b162-cd85cefbce59);
      }

      .uuid-e6ce86c8-2d41-4633-9031-8795d357d832 {
        fill: #219560;
      }

      .uuid-4c2668f2-7a43-4c08-bff9-7d80b9c3cc00 {
        fill: url(#uuid-147bac1d-8612-4abe-ace0-1893345e9732);
      }

      .uuid-bc6277a0-035a-4064-8ccb-b8cf5561e3d2 {
        fill: #dd4296;
      }

      .uuid-7cd92f9b-8e6c-46b2-bee8-3e0f0a056102 {
        fill: url(#uuid-8fc7d8c6-bcef-4d90-8fbc-a313554f5507);
      }

      .uuid-979ee398-3a22-4c09-91d4-b35d11dee909 {
        fill: #af3a9e;
      }

      .uuid-16b4ee65-31de-4a68-a022-219fe967da48 {
        fill: url(#uuid-5701ceee-d65a-4dc0-9fdf-aa278fd1d853);
      }

      .uuid-c24a41eb-1306-4410-9ede-e344e4af1cc0 {
        fill: #8e68ab;
      }

      .uuid-8e993f1a-9467-4985-86a8-cbc8c9f7207d {
        fill: url(#uuid-0d78b2d0-9574-47ab-b3e3-f576636082c0);
      }

      .uuid-fced5e47-0e79-4cd0-89c4-88b92d080829 {
        fill: #fad607;
      }

      .uuid-ea73bb9d-6c18-48ed-b101-46bb2d2ab2d9 {
        fill: url(#uuid-6302c26d-fae2-4366-9c1e-4f54e726f834);
      }

      .uuid-1a6bf495-b46e-4203-b5a5-23fc7ac159ee {
        fill: #5cbd45;
      }

      .uuid-2dad5a65-d72f-4575-9d16-b94835e84c7d {
        fill: #f57f23;
      }

      .uuid-ed9cf64f-d18e-4b8e-b75a-8ae604940096 {
        fill: url(#uuid-c6b12dd6-fa85-4aa9-a1eb-408ceabed1b5);
      }

      .uuid-c39afd56-3acd-4923-80e5-395c57274872 {
        fill: url(#uuid-98c74503-a0b8-405a-97b6-a8d4b2a78c47);
      }

      .uuid-712c02b2-3bd9-40cb-ac81-ba52dca9bbf5 {
        fill: #44c8ef;
      }

      .uuid-1111ecab-2a0f-4836-a937-8c0d7396aa14 {
        fill: url(#uuid-22088e12-57e0-4fdc-bef8-1dcd754186d3);
      }

      .uuid-aed6b5c4-821a-4772-ac64-aac3bf6556b3 {
        fill: url(#uuid-204bb19d-604a-4d07-9a21-211c2cb5e3cb);
      }

      .uuid-5afd2587-1733-45d6-b13b-def97c28f0e3 {
        fill: url(#uuid-26660388-654e-4747-ac81-85cc560528d7);
      }

      .uuid-5814f9f9-d0a3-4bef-8a55-960ac2fb6de5 {
        fill: #7154a0;
      }

      .uuid-ec59a16d-8adf-4adf-adaf-7526a2942533 {
        fill: #ffa612;
      }

      .uuid-9ab15e71-ad5b-4b2d-a66d-fbc8b5e7702f {
        fill: url(#uuid-5f7628f9-6608-4288-9c1b-5102781a81f7);
      }

      .uuid-ef2ea5b3-dd07-45fe-a85b-74f589dcc924 {
        fill: #fbd600;
      }

      .uuid-7838644a-9a33-46ba-ba10-a126ac820a3c {
        fill: #5fbb46;
      }

      .uuid-373e4488-5598-4ed7-93df-ec8a5c688606 {
        fill: #3a53a0;
      }

      .uuid-c8c24d67-07c9-438c-ab3c-44b021f7de51 {
        fill: url(#uuid-0735a039-4b18-4748-9126-83306294aac0);
      }

      .uuid-de4b3701-0462-4443-8f33-5f0c10da50ed {
        fill: #f28522;
      }

      .uuid-8c397bf2-049e-45b7-a68a-15013c42402d {
        fill: #3cc6fb;
      }

      .uuid-41aec1dc-1231-44ed-b685-0844412cc73c {
        fill: url(#uuid-bbba6ea2-10e2-4e3d-966c-8b7c40d82b1b);
      }

      .uuid-0b839268-cbb2-46b5-887f-2ddf4ca4a18a {
        fill: #de4296;
      }

      .uuid-50dd8b87-5de4-48ed-9ba0-4a07d9974543 {
        fill: url(#uuid-192ef62e-e60c-49b3-8502-f134199fc786);
      }
    </style>
    <radialGradient id="uuid-204bb19d-604a-4d07-9a21-211c2cb5e3cb" data-name="Dégradé sans nom 31" cx="615.85" cy="475.4" fx="615.85" fy="475.4" r="218.45" gradientUnits="userSpaceOnUse">
      <stop offset="0" stop-color="#8ac8f1"/>
      <stop offset=".22" stop-color="#78b7e6"/>
      <stop offset=".67" stop-color="#4a8bcc"/>
      <stop offset=".67" stop-color="#4a8bcc"/>
      <stop offset="1" stop-color="#4b74c1"/>
    </radialGradient>
    <radialGradient id="uuid-bbba6ea2-10e2-4e3d-966c-8b7c40d82b1b" data-name="Dégradé sans nom 31" cy="475.4" fy="475.4" r="218.45" xlink:href="#uuid-204bb19d-604a-4d07-9a21-211c2cb5e3cb"/>
    <radialGradient id="uuid-6302c26d-fae2-4366-9c1e-4f54e726f834" data-name="Dégradé sans nom 31" cx="615.85" cy="475.4" fx="615.85" fy="475.4" r="218.45" xlink:href="#uuid-204bb19d-604a-4d07-9a21-211c2cb5e3cb"/>
    <radialGradient id="uuid-26660388-654e-4747-ac81-85cc560528d7" data-name="Dégradé sans nom 31" cx="615.85" cy="475.4" fx="615.85" fy="475.4" r="218.45" xlink:href="#uuid-204bb19d-604a-4d07-9a21-211c2cb5e3cb"/>
    <radialGradient id="uuid-8fc7d8c6-bcef-4d90-8fbc-a313554f5507" data-name="Dégradé sans nom 31" cx="615.85" cy="475.4" fx="615.85" fy="475.4" r="218.45" xlink:href="#uuid-204bb19d-604a-4d07-9a21-211c2cb5e3cb"/>
    <radialGradient id="uuid-0d78b2d0-9574-47ab-b3e3-f576636082c0" data-name="Dégradé sans nom 31" cy="475.4" fy="475.4" r="218.45" xlink:href="#uuid-204bb19d-604a-4d07-9a21-211c2cb5e3cb"/>
    <radialGradient id="uuid-5701ceee-d65a-4dc0-9fdf-aa278fd1d853" data-name="Dégradé sans nom 31" cx="615.85" cy="475.4" fx="615.85" fy="475.4" r="218.45" xlink:href="#uuid-204bb19d-604a-4d07-9a21-211c2cb5e3cb"/>
    <radialGradient id="uuid-147bac1d-8612-4abe-ace0-1893345e9732" data-name="Dégradé sans nom 31" cx="615.85" cy="475.4" fx="615.85" fy="475.4" r="218.45" xlink:href="#uuid-204bb19d-604a-4d07-9a21-211c2cb5e3cb"/>
    <radialGradient id="uuid-22088e12-57e0-4fdc-bef8-1dcd754186d3" data-name="Dégradé sans nom 31" cx="615.85" cy="475.4" fx="615.85" fy="475.4" r="218.45" xlink:href="#uuid-204bb19d-604a-4d07-9a21-211c2cb5e3cb"/>
    <radialGradient id="uuid-192ef62e-e60c-49b3-8502-f134199fc786" data-name="Dégradé sans nom 31" cx="615.85" cy="475.4" fx="615.85" fy="475.4" r="218.45" xlink:href="#uuid-204bb19d-604a-4d07-9a21-211c2cb5e3cb"/>
    <radialGradient id="uuid-0735a039-4b18-4748-9126-83306294aac0" data-name="Dégradé sans nom 31" cx="615.85" fx="615.85" r="218.45" xlink:href="#uuid-204bb19d-604a-4d07-9a21-211c2cb5e3cb"/>
    <radialGradient id="uuid-c6b12dd6-fa85-4aa9-a1eb-408ceabed1b5" data-name="Dégradé sans nom 31" cx="615.85" cy="475.4" fx="615.85" fy="475.4" r="218.45" xlink:href="#uuid-204bb19d-604a-4d07-9a21-211c2cb5e3cb"/>
    <radialGradient id="uuid-98c74503-a0b8-405a-97b6-a8d4b2a78c47" data-name="Dégradé sans nom 31" cx="615.85" cy="475.4" fx="615.85" fy="475.4" r="218.45" xlink:href="#uuid-204bb19d-604a-4d07-9a21-211c2cb5e3cb"/>
    <radialGradient id="uuid-f1eac4a7-2843-47dc-ade8-4dac9536f8ac" data-name="Dégradé sans nom 31" cx="615.85" cy="475.4" fx="615.85" fy="475.4" r="218.45" xlink:href="#uuid-204bb19d-604a-4d07-9a21-211c2cb5e3cb"/>
    <radialGradient id="uuid-5f7628f9-6608-4288-9c1b-5102781a81f7" data-name="Dégradé sans nom 31" cy="475.4" fy="475.4" r="218.45" xlink:href="#uuid-204bb19d-604a-4d07-9a21-211c2cb5e3cb"/>
    <radialGradient id="uuid-f8943f61-0a2c-42e1-b162-cd85cefbce59" data-name="Dégradé sans nom 31" cy="475.4" fy="475.4" r="218.45" xlink:href="#uuid-204bb19d-604a-4d07-9a21-211c2cb5e3cb"/>
  </defs>
  <path class="uuid-aed6b5c4-821a-4772-ac64-aac3bf6556b3" d="M638.95,654.72c-31.91-7.06-61.51-13.35-90.92-20.43-3.64-.88-8.86-5.83-8.97-9.04-.85-25.46-.95-50.97-.32-76.43,.07-3.02,5.93-8.38,9.18-8.44,35.35-.67,70.72-.65,106.07-.26,2.92,.03,7.98,3.78,8.34,6.32,2.03,14.49-10.73,93.77-23.38,108.29Z"/>
  <path class="uuid-41aec1dc-1231-44ed-b685-0844412cc73c" d="M638.87,405.23c2.88,7.27,7.17,14.88,8.87,23.03,5.53,26.5,10.19,53.18,14.99,79.83,1.62,8.98-1.28,13.42-11.67,13.25-33.3-.54-66.62-.42-99.93-.07-9.32,.1-13.45-2.75-13.26-12.65,.44-23.02,.06-46.05,.07-69.08,0-5.39-.43-10.97,7.57-11.45,31.15-1.86,60.62-10.45,89.1-22.82,.68-.3,1.6-.04,4.25-.04Z"/>
  <path class="uuid-ea73bb9d-6c18-48ed-b101-46bb2d2ab2d9" d="M460.48,539.97c15.62,0,31.24,.18,46.86-.07,8.69-.14,12.58,3.04,12.38,12.3-.51,23.42-.36,46.86-.33,70.29,.01,6.97-1.85,10.9-9.83,12.73-26.3,6.01-52.29,13.4-78.57,19.5-3.28,.76-9.99-2.09-11.1-4.86-12.74-31.89-19.84-65.1-21-99.5-.3-8.86,5.72-9.91,12.27-9.96,16.44-.13,32.89-.04,49.33-.04v-.38Z"/>
  <path class="uuid-5afd2587-1733-45d6-b13b-def97c28f0e3" d="M459.27,520.57c-16.45,0-32.9-.15-49.35,.06-8.53,.11-11.44-3.53-10.96-12.05,1.84-32.7,8.3-64.34,19.9-94.97,2.54-6.7,5.37-7.82,12.88-5.63,25.93,7.53,52.18,14.08,78.55,19.88,7.1,1.56,9.86,3.52,9.74,10.72-.39,23.85-.51,47.71-.39,71.56,.04,7.92-3.13,11.02-11.03,10.87-16.45-.32-32.9-.1-49.35-.1v-.34Z"/>
  <path class="uuid-7cd92f9b-8e6c-46b2-bee8-3e0f0a056102" d="M721.12,540.32c10.26,0,20.52-.12,30.77,.04,6.36,.1,9.66,2.67,8.82,9.99-5.82,50.73-24.37,95.76-58.49,134.2-7.31,8.24-12.65,9.35-21.89,1.82-23.39-19.06-22.24-18.13-14.77-47.95,7.04-28.1,10.87-57.08,14.84-85.84,1.31-9.48,4.43-13.03,13.64-12.59,9.01,.42,18.05,.09,27.08,.09,0,.08,0,.17,0,.25Z"/>
  <path class="uuid-8e993f1a-9467-4985-86a8-cbc8c9f7207d" d="M720.56,521.06c-5.35,0-10.7,0-16.04,0-23.09-.02-21.68-.28-25.7-22.44-5.69-31.41-13.13-62.55-21.13-93.48-2.2-8.52-1.02-12.87,6.05-17.1,5.97-3.58,12-7.44,16.93-12.28,7.9-7.75,13.47-7.38,20.95,1.21,33.46,38.42,53.07,82.61,58.58,133.28,.94,8.69-2.13,11-10.02,10.71-9.86-.36-19.74-.09-29.61-.09,0,.06,0,.12,0,.18Z"/>
  <path class="uuid-16b4ee65-31de-4a68-a022-219fe967da48" d="M340.21,541.09c4.52,0,9.05,.08,13.57-.01,29.31-.6,22.67-.09,26.95,23.87,5.54,31.03,12.63,61.82,20.17,92.44,2,8.11,1.7,13.18-5.38,17.74-5.86,3.77-11.72,7.74-16.84,12.43-7.68,7.03-13.24,5.05-19.45-2.12-32.11-37.08-51.98-79.56-57.54-128.48-1.64-14.44-.41-15.8,13.83-15.97,8.22-.1,16.45-.02,24.68-.02,0,.04,0,.08,0,.12Z"/>
  <path class="uuid-4c2668f2-7a43-4c08-bff9-7d80b9c3cc00" d="M340.31,520.24c-9.86,0-19.71,0-29.57,0-6.62,0-9.6-2.74-9.01-9.86,4.4-52.83,26.25-97.77,61.82-136.34,1.9-2.06,7.45-.84,11.3-.96,.63-.02,1.28,.96,1.93,1.46,9.07,6.97,23,12.38,25.85,21.33,2.84,8.9-6.41,21.16-8.64,32.29-5.14,25.68-9.83,51.49-13.46,77.42-1.54,11.03-5.06,16.31-16.84,15-7.71-.86-15.59-.16-23.39-.16,0-.06,0-.13,0-.19Z"/>
  <path class="uuid-1111ecab-2a0f-4836-a937-8c0d7396aa14" d="M630.38,387.07c-26.75,14.23-53.85,21.23-82.4,23.19-6.39,.44-10.1-1.53-10.04-8.82,.23-27.1,.23-54.2,.2-81.3,0-7.25,3.62-10.41,10.04-7.64,12.71,5.48,26.08,10.36,37.25,18.23,19.72,13.88,33.64,33.22,44.96,56.34Z"/>
  <path class="uuid-50dd8b87-5de4-48ed-9ba0-4a07d9974543" d="M538.51,703.05c0-11.92,.08-23.84-.03-35.75-.09-9.21,4.05-14.82,13.42-12.51,23.42,5.79,46.65,12.35,69.88,18.89,6.75,1.9,6.25,7.04,3.28,11.77-17.28,27.62-37.35,52.22-69.89,62.95-12.82,4.23-15.61,2.46-15.89-10.82-.24-11.51-.05-23.02-.05-34.53h-.73Z"/>
  <path class="uuid-c8c24d67-07c9-438c-ab3c-44b021f7de51" d="M432.58,387.08c9.72-30.35,54.53-76.29,87.17-73.66,0,11.07-.03,22.38,0,33.68,.05,17.63,.1,35.26,.24,52.89,.05,6.03-.96,10.56-8.71,9.94-27.67-2.21-53.69-9.71-78.71-22.85Z"/>
  <path class="uuid-ed9cf64f-d18e-4b8e-b75a-8ae604940096" d="M517.43,750.39c-16.25-1.07-29.89-7.41-40.41-17.52-14.08-13.54-26.3-29.07-38.82-44.16-5.99-7.22-5.06-13.63,5.1-16.47,20.47-5.72,40.89-11.68,61.47-16.98,9.58-2.47,14.53,1.35,14.33,12.12-.46,23.81-.13,47.63-.27,71.45-.02,3.57-.84,7.14-1.39,11.56Z"/>
  <path class="uuid-c39afd56-3acd-4923-80e5-395c57274872" d="M596.65,311.06c28,8.28,55.48,21.9,81.27,44.1-9.53,7.16-17.31,13.65-25.84,18.93-1.95,1.21-7.82-.64-9.59-2.89-15.8-20.12-31.09-40.65-45.84-60.15Z"/>
  <path class="uuid-0a9a493e-9bd2-44c8-a074-84a146b4220c" d="M463.4,311.64c-14.62,18.85-30,38.32-44.9,58.14-3.79,5.04-7.12,6.25-12.1,2.45-7.08-5.39-14.16-10.78-22.41-17.06,24.81-21.84,51.92-35.16,79.41-43.53Z"/>
  <path class="uuid-9ab15e71-ad5b-4b2d-a66d-fbc8b5e7702f" d="M385.99,709.52c2.81-3.16,4.02-4.83,5.53-6.16,20.25-17.87,20.2-17.17,35.31,4.74,10.55,15.3,23.78,28.76,35.63,42.83-27.24-8.44-53.33-20.71-76.47-41.4Z"/>
  <path class="uuid-fd12087c-dd3a-4c6f-bc43-2eee7ed823ab" d="M676.09,708.57c-24.55,21.32-50.33,33.7-75.88,41.88,13.59-17.92,27.98-37.25,42.95-56.12,1.67-2.11,7.6-3.29,9.91-1.99,7.35,4.13,13.92,9.64,23.02,16.22Z"/>
  <path class="uuid-8c397bf2-049e-45b7-a68a-15013c42402d" d="M917.61,584.84c-29.92,0-54.06-24.2-53.98-54.13,.08-29.23,25.13-53.58,54.93-53.38,29.09,.19,53.13,24.55,53.05,53.76-.09,30.2-23.74,53.75-53.99,53.76Z"/>
  <path class="uuid-ef2ea5b3-dd07-45fe-a85b-74f589dcc924" d="M336.24,249.2c-30.24-.35-53.62-24.27-53.22-54.46,.39-29.12,24.65-52.74,54.06-52.63,28.76,.11,54.11,25.43,53.55,53.49-.61,30.47-24.42,53.93-54.39,53.59Z"/>
  <path class="uuid-7838644a-9a33-46ba-ba10-a126ac820a3c" d="M723.79,248.64c-28.77-.06-52.45-23.71-52.71-52.66-.27-29.06,24.6-54.04,53.36-53.6,28.8,.44,53.1,24.83,52.81,53.01-.31,29.79-23.91,53.31-53.45,53.25Z"/>
  <path class="uuid-de4b3701-0462-4443-8f33-5f0c10da50ed" d="M90.38,531.49c-.37-29.35,22.19-52.48,51.67-52.97,29.53-.49,53.61,23.04,53.78,52.54,.17,28.66-23.58,52.93-52.01,53.18-29.49,.25-53.07-23.02-53.44-52.75Z"/>
  <path class="uuid-fbeb8c37-0df3-4d41-8491-a4d79a907097" d="M724.11,814.04c28.88,.05,53.19,23.92,53.08,52.09-.12,29.27-24.51,53.94-53.12,53.72-29.35-.23-52.95-24.17-52.88-53.66,.07-28.54,24.07-52.21,52.91-52.15Z"/>
  <path class="uuid-0b839268-cbb2-46b5-887f-2ddf4ca4a18a" d="M337.47,814.38c28.7,.16,52.67,24.47,52.16,52.89-.51,28.34-25.26,52.79-53.22,52.58-28.32-.21-52.87-24.96-52.55-52.99,.34-30.09,23.39-52.65,53.62-52.49Z"/>
  <path class="uuid-0b13d9be-9d5c-43cd-87bc-c2d312da1673" d="M343.86,309.52l-.74,73.01c-15.79,5.24-34.07,13.33-52.6,25.95-21.24,14.48-34.32,29.13-37.72,33.02-4.35,4.98-13.89,16.44-23.12,33.07-6.67,12.03-15.13,30.31-20.28,54.17-1.81-17.18-2.24-40.52,3.35-67.22,2.94-14.06,6.98-26.32,11.14-36.65,8.17-18.34,24.8-49.11,56.7-76.87,23.41-20.38,46.77-31.94,63.27-38.5Z"/>
  <path class="uuid-fced5e47-0e79-4cd0-89c4-88b92d080829" d="M369.37,250.04c-9.84,9.22-20.99,21.22-31.76,36.36-14.56,20.44-23.72,39.97-29.54,55.41-2.98,11.23-5.72,25.99-5.91,43.4-.28,22.99,3.99,41.94,8.06,54.98l-60.8,33.37c-4.23-16.93-9.45-47.77-1.11-84.42,5.1-22.37,13.63-39.91,20.86-52.06,7.58-13.35,20.24-32.07,40.36-50.11,22.41-20.06,44.85-31.01,59.85-36.93Z"/>
  <path class="uuid-ec59a16d-8adf-4adf-adaf-7526a2942533" d="M626.48,255.87l-63.46,36.11c-12.48-11.01-28.67-22.72-48.9-32.38-23.21-11.06-42.45-14.99-47.52-15.97-6.49-1.25-21.2-3.72-40.22-3.33-13.75,.29-33.8,2.18-57.02,9.75,13.93-10.21,33.88-22.33,59.77-30.94,13.63-4.54,26.26-7.22,37.28-8.82,19.96-2.17,54.92-3.29,94.96,10.3,29.39,9.97,51.14,24.33,65.11,35.29Z"/>
  <path class="uuid-1a6bf495-b46e-4203-b5a5-23fc7ac159ee" d="M694.24,250.12c-12.9-3.93-28.86-7.62-47.35-9.41-24.97-2.43-46.48-.64-62.77,2.01-11.22,3.01-25.39,8-40.57,16.5-20.07,11.22-34.37,24.37-43.65,34.39l-59.23-36.08c12.57-12.11,36.71-32,72.64-43.04,21.93-6.73,41.39-8.08,55.53-7.86,15.35-.08,37.89,1.56,63.56,10.02,28.56,9.43,49.24,23.43,61.84,33.48Z"/>
  <path class="uuid-e6ce86c8-2d41-4633-9031-8795d357d832" d="M817.34,475.93l-62.93-37.02c3.32-16.3,5.41-36.18,3.7-58.54-1.97-25.63-8.16-44.27-9.84-49.16-2.15-6.25-7.34-20.24-17.16-36.52-7.11-11.78-18.74-28.22-36.87-44.57,15.79,6.99,36.24,18.25,56.61,36.39,10.73,9.56,19.35,19.17,26.22,27.92,11.83,16.22,30.22,45.97,38.4,87.46,6,30.45,4.39,56.46,1.86,74.04Z"/>
  <path class="uuid-712c02b2-3bd9-40cb-ac81-ba52dca9bbf5" d="M850.19,532.72c-2.7-13.21-7.09-28.99-14.34-46.1-9.79-23.11-21.63-41.14-31.74-54.19-8-8.42-19.15-18.49-33.87-27.77-19.44-12.28-37.82-18.56-51.05-21.93l3.42-69.27c16.64,5.26,45.64,16.97,72.5,43.27,16.38,16.06,26.86,32.51,33.43,45.03,7.4,13.45,16.72,34.04,21.55,60.63,5.36,29.6,2.93,54.45,.12,70.33Z"/>
  <path class="uuid-373e4488-5598-4ed7-93df-ec8a5c688606" d="M710.57,748.7l2.47-72.97c15.91-4.87,34.37-12.52,53.2-24.7,21.58-13.98,35-28.31,38.49-32.12,4.46-4.88,14.28-16.11,23.9-32.52,6.96-11.87,15.84-29.94,21.55-53.68,1.4,17.22,1.28,40.56-4.94,67.12-3.28,13.99-7.6,26.15-12.01,36.37-8.6,18.14-25.96,48.51-58.51,75.5-23.89,19.82-47.51,30.82-64.16,36.99Z"/>
  <path class="uuid-c24a41eb-1306-4410-9ede-e344e4af1cc0" d="M693.07,812.68c9.8-9.26,20.9-21.3,31.61-36.48,14.48-20.5,23.56-40.07,29.32-55.53,2.94-11.24,5.62-26.02,5.74-43.42,.19-22.99-4.16-41.92-8.27-54.95l60.67-33.6c4.3,16.92,9.64,47.73,1.44,84.42-5.01,22.39-13.47,39.97-20.65,52.14-7.53,13.38-20.11,32.15-40.17,50.26-22.33,20.15-44.73,31.19-59.7,37.16Z"/>
  <path class="uuid-5814f9f9-d0a3-4bef-8a55-960ac2fb6de5" d="M435.94,807.86l63.31-36.36c12.52,10.96,28.76,22.61,49.03,32.19,23.25,10.97,42.51,14.82,47.59,15.78,6.5,1.22,21.22,3.64,40.23,3.17,13.75-.35,33.79-2.32,56.98-9.97-13.89,10.26-33.79,22.46-59.64,31.18-13.62,4.59-26.23,7.32-37.24,8.97-19.95,2.25-54.9,3.51-95-9.93-29.43-9.86-51.24-24.13-65.25-35.03Z"/>
  <path class="uuid-bc6277a0-035a-4064-8ccb-b8cf5561e3d2" d="M368.06,812.6c12.89,3.96,28.84,7.67,47.33,9.5,24.97,2.48,46.48,.73,62.77-1.89,11.23-2.99,25.4-7.95,40.6-16.43,20.09-11.18,34.41-24.3,43.71-34.31l59.16,36.19c-12.59,12.09-36.76,31.93-72.71,42.91-21.94,6.69-41.41,8-55.54,7.76-15.35,.05-37.89-1.63-63.54-10.13-28.54-9.48-49.2-23.52-61.78-33.59Z"/>
  <path class="uuid-979ee398-3a22-4c09-91d4-b35d11dee909" d="M245.37,586.57l62.86,37.13c-3.35,16.3-5.48,36.17-3.81,58.53,1.93,25.64,8.08,44.29,9.75,49.18,2.14,6.26,7.3,20.25,17.09,36.55,7.09,11.79,18.69,28.25,36.79,44.64-15.78-7.02-36.21-18.31-56.55-36.49-10.71-9.58-19.31-19.2-26.17-27.97-11.8-16.24-30.14-46.02-38.24-87.53-5.95-30.46-4.29-56.47-1.73-74.04Z"/>
  <path class="uuid-2dad5a65-d72f-4575-9d16-b94835e84c7d" d="M209.4,528.75c3.02,13.14,7.77,28.82,15.43,45.74,10.33,22.87,22.6,40.62,33.01,53.42,8.2,8.23,19.58,18.03,34.52,26.96,19.73,11.81,38.25,17.66,51.56,20.72l-1.78,69.33c-16.76-4.87-46.03-15.88-73.51-41.54-16.76-15.66-27.63-31.87-34.48-44.23-7.72-13.27-17.52-33.63-22.98-60.1-6.06-29.46-4.22-54.37-1.78-70.3Z"/>
</svg>